:SAMPLES-PER-SECOND 30
:FULLY-SPECIFIED
:DEGREES
235
root  -2.74426 40.4675 -1.84446 -14.5881 -82.9953 12.7004
RightUpLeg  -10.4931 -0.88263 -0.48979
RightLeg  55.6203 -6.3984 -10.3513
RightFoot  28.6337 -0.710595 2.43512
RightToes  -1.16417e-010 0 -3.6325e-017
Spine  17.5731 -1.3102 1.0114
Spine1  15.5198 0.490477 -6.64725
HEad  -28.0851 4.26865 3.09462
LeftShoulder1  3.20123 -10.2841 -16.5038
LeftArm  -5.42945 -8.74893 -55.3833
LeftForeArm  -26.0443 -18.5928 -7.42676
LeftHand  -1.78229 -5.62222 18.9484
RightShoulder  2.13295 5.5962 16.8117
RightArm  -36.8986 5.42845 54.0272
RightForeArm  -8.75669 38.022 8.75352
RightHand  -2.96757 8.7877 -24.3001
LeftUpLeg  -14.149 -5.8288 -7.15635
LeftLeg  20.1751 2.85997 1.71614
LeftFoot  9.7777 1.03037 -5.90716
LeftToes  6.91183e-011 3.39355e-011 2.1261e-011
236
root  -2.71034 41.3924 -1.41917 -4.49988 -82.5927 3.30049
RightUpLeg  -19.4053 -2.14686 0.0714054
RightLeg  58.2973 -9.20106 -15.9947
RightFoot  25.2983 0.176382 0.0266328
RightToes  -1.16417e-010 0 -3.6325e-017
Spine  18.9909 -3.43169 -2.06469
Spine1  13.165 -5.05432 2.34621
HEad  -27.2948 12.0329 -4.091
LeftShoulder1  3.38554 -11.2009 -16.2841
LeftArm  -5.32201 -10.7034 -54.6582
LeftForeArm  -21.2939 -17.4098 -8.17318
LeftHand  -1.90233 -5.76189 19.929
RightShoulder  2.10555 5.68233 16.2481
RightArm  -38.7807 14.4637 52.6325
RightForeArm  -12.1528 21.5167 5.07032
RightHand  -2.91851 8.59565 -24.1926
LeftUpLeg  -10.4108 -8.01757 -5.97401
LeftLeg  17.775 -1.53085 0.573072
LeftFoot  7.8226 1.29224 -7.94162
LeftToes  6.91183e-011 3.39355e-011 2.1261e-011
237
root  -2.8718 41.7979 -0.856511 2.67741 -83.6931 -3.9444
RightUpLeg  -26.1278 -0.70516 -0.0120762
RightLeg  57.5375 -9.97137 -16.7866
RightFoot  21.4549 -0.061561 0.718899
RightToes  -1.16417e-010 0 -3.6325e-017
Spine  19.955 -5.07343 -3.04826
Spine1  10.9072 -8.46334 8.05402
HEad  -27.2265 17.4709 -10.7655
LeftShoulder1  3.52468 -11.2202 -17.298
LeftArm  -3.79739 -10.001 -52.1394
LeftForeArm  -20.9464 -24.0482 -6.32609
LeftHand  -2.08634 -5.70493 21.902
RightShoulder  2.02354 5.07251 17.0011
RightArm  -41.0069 19.2824 51.1009
RightForeArm  -12.5014 15.5171 3.97233
RightHand  -2.64258 8.27972 -22.4929
LeftUpLeg  -6.37213 -12.6848 -6.11873
LeftLeg  22.6278 -0.614666 0.112075
LeftFoot  2.37737 0.908907 -7.62248
LeftToes  6.91183e-011 3.39355e-011 2.1261e-011
238
root  -3.25338 41.6873 -0.234807 3.43529 -87.6581 -5.41144
RightUpLeg  -31.0394 3.82343 -0.205289
RightLeg  53.8815 -8.15034 -12.2495
RightFoot  22.6025 -0.484951 2.11087
RightToes  -1.16417e-010 0 -3.6325e-017
Spine  19.224 -5.70585 -1.71829
Spine1  10.2903 -9.16292 9.59401
HEad  -27.3005 20.7315 -16.5515
LeftShoulder1  3.41351 -9.91732 -18.9176
LeftArm  -11.4854 -8.07887 -49.0869
LeftForeArm  -12.5899 -34.9424 -8.4878
LeftHand  -2.13929 -4.93042 24.061
RightShoulder  1.96234 4.35471 18.4874
RightArm  -40.8774 19.3883 49.5262
RightForeArm  -12.0653 19.2027 4.73592
RightHand  -2.56096 8.28815 -21.809
LeftUpLeg  0.301017 -9.79316 -8.15082
LeftLeg  26.1731 0.524123 0.611164
LeftFoot  2.41937 0.690251 -5.87897
LeftToes  6.91183e-011 3.39355e-011 2.1261e-011
239
root  -3.99182 41.1611 0.307164 165.482 -85.8547 -167.211
RightUpLeg  -35.0374 9.27068 0.129148
RightLeg  48.3223 -4.40126 -5.63676
RightFoot  25.9369 -0.560829 2.2065
RightToes  -1.16417e-010 0 -3.6325e-017
Spine  15.7881 -5.25307 -0.21926
Spine1  10.944 -8.13587 8.95763
HEad  -26.4883 23.5615 -21.3512
LeftShoulder1  3.17195 -8.3721 -20.278
LeftArm  -18.0272 -4.12348 -46.4604
LeftForeArm  -2.94317 -49.9234 -13.6993
LeftHand  -1.94212 -3.45712 25.376
RightShoulder  2.07209 4.29942 20.1872
RightArm  -38.7174 16.6667 47.0282
RightForeArm  -12.1609 28.5169 6.79483
RightHand  -2.72814 8.749 -22.4546
LeftUpLeg  7.73721 -1.82155 -9.72079
LeftLeg  23.6158 3.47952 2.05699
LeftFoot  6.91633 0.809344 -5.29934
LeftToes  6.91183e-011 3.39355e-011 2.1261e-011
240
root  -4.97495 40.1933 0.604813 -176.031 -80.8433 175.84
RightUpLeg  -37.6261 11.8192 0.746771
RightLeg  43.8206 -1.13627 -1.40051
RightFoot  26.8891 -0.692506 2.56875
RightToes  -1.16417e-010 0 -3.6325e-017
Spine  10.9949 -4.97938 -1.38801
Spine1  11.3084 -8.18545 10.3837
HEad  -25.3021 27.4799 -24.8802
LeftShoulder1  2.93197 -7.22141 -20.9501
LeftArm  -23.3535 2.69562 -43.3458
LeftForeArm  13.6762 -66.9653 -27.5564
LeftHand  -1.58871 -1.95309 24.9852
RightShoulder  2.32703 4.73187 22.0183
RightArm  -36.7917 13.7389 44.0368
RightForeArm  -11.5074 40.1981 10.1291
RightHand  -2.77719 9.12353 -22.2741
LeftUpLeg  13.707 5.23342 -10.3572
LeftLeg  17.7933 3.87352 2.00205
LeftFoot  7.14577 0.718079 -4.67674
LeftToes  6.91183e-011 3.39355e-011 2.1261e-011
241
root  -5.70034 38.9179 0.57391 -168.159 -80.1262 169.425
RightUpLeg  -37.9934 10.8636 1.41189
RightLeg  42.6994 -1.63021 -1.9034
RightFoot  21.8907 -0.679784 2.78305
RightToes  -1.16417e-010 0 -3.6325e-017
Spine  7.49337 -5.91133 -5.53127
Spine1  10.9747 -10.7199 15.2768
HEad  -24.6405 31.2338 -26.0789
LeftShoulder1  2.65293 -6.29279 -20.6694
LeftArm  -27.305 9.69779 -38.8826
LeftForeArm  62.1157 -78.8784 -76.3034
LeftHand  -1.26534 -0.711505 24.0056
RightShoulder  2.51602 4.91406 23.7618
RightArm  -35.7598 10.8528 42.5277
RightForeArm  -7.93366 54.3182 16.6746
RightHand  -2.38943 8.27238 -20.4027
LeftUpLeg  17.2449 6.04024 -10.021
LeftLeg  14.6145 -2.85198 -0.561465
LeftFoot  0.490897 0.324728 -3.07256
LeftToes  6.91183e-011 3.39355e-011 2.1261e-011
242
root  -6.08135 37.532 0.371932 -162.77 -81.4628 164.369
RightUpLeg  -36.5635 9.44998 2.44353
RightLeg  44.5711 -4.54555 -5.09852
RightFoot  9.89197 -0.0953736 0.630575
RightToes  -1.16417e-010 0 -3.6325e-017
Spine  6.13075 -6.62374 -8.7944
Spine1  10.5655 -12.7273 19.0284
HEad  -24.0513 31.8266 -24.5675
LeftShoulder1  2.34856 -5.6099 -19.27
LeftArm  -30.0232 12.5903 -33.4647
LeftForeArm  123.888 -73.6128 -140.012
LeftHand  -0.994599 0.634183 24.1782
RightShoulder  2.54027 4.69634 24.904
RightArm  -36.372 6.72933 42.705
RightForeArm  6.2738 69.7008 33.8786
RightHand  -1.87639 6.39644 -18.6527
LeftUpLeg  18.7187 5.06291 -8.67236
LeftLeg  16.4849 -14.2166 -3.58328
LeftFoot  -9.64312 0.0811958 0.219559
LeftToes  6.91183e-011 3.39355e-011 2.1261e-011
243
root  -6.43044 36.3057 0.287043 -167.159 -80.8181 168.233
RightUpLeg  -35.0139 9.66314 4.21423
RightLeg  47.4793 -5.86818 -7.10688
RightFoot  -3.37217 0.221394 -3.30295
RightToes  -1.16417e-010 0 -3.6325e-017
Spine  5.35198 -5.27268 -7.39348
Spine1  10.8479 -11.0649 17.5445
HEad  -23.0925 28.5303 -22.5081
LeftShoulder1  2.1587 -5.47251 -17.4223
LeftArm  -32.8051 10.93 -29.5246
LeftForeArm  140.133 -64.487 -156.567
LeftHand  -0.756521 1.82271 24.4047
RightShoulder  2.52755 4.53644 25.3835
RightArm  -38.5989 2.42746 42.0735
RightForeArm  50.3146 78.5543 80.8536
RightHand  -1.61455 5.06214 -18.0886
LeftUpLeg  19.5757 2.05012 -9.99628
LeftLeg  20.023 -13.6273 -4.06744
LeftFoot  -18.5781 0.399626 4.78165
LeftToes  6.91183e-011 3.39355e-011 2.1261e-011
